<svg width="79" height="32" viewBox="0 0 79 32" fill="none" xmlns="http://www.w3.org/2000/svg">
<rect opacity="0.3" width="32" height="32" rx="16" fill="#FFCA65"/>
<path d="M37.7173 20H39.0348V16.9105H42.4048V20H43.7259V12.7273H42.4048V15.8061H39.0348V12.7273H37.7173V20ZM47.4927 20L48.0928 18.2067H50.8272L51.4309 20H52.8371L50.2732 12.7273H48.6468L46.0864 20H47.4927ZM48.4479 17.1484L49.4316 14.2188H49.4884L50.4721 17.1484H48.4479ZM57.7341 20.0994C59.2895 20.0994 60.4223 19.2081 60.4188 17.9794C60.4223 17.0703 59.8542 16.4169 58.835 16.2713V16.2145C59.6233 16.044 60.1524 15.4581 60.1489 14.6413C60.1524 13.5334 59.2078 12.6278 57.7554 12.6278C56.3421 12.6278 55.2483 13.4695 55.2199 14.6875H56.4877C56.509 14.0767 57.0772 13.6967 57.7483 13.6967C58.4266 13.6967 58.8776 14.1087 58.874 14.7195C58.8776 15.3551 58.352 15.7777 57.5992 15.7777H56.9564V16.7933H57.5992C58.5189 16.7933 59.0658 17.255 59.0623 17.9119C59.0658 18.5547 58.5083 18.995 57.7306 18.995C56.999 18.995 56.4344 18.6151 56.4024 18.022H55.0672C55.1027 19.2507 56.2 20.0994 57.7341 20.0994ZM64.0427 20L64.6428 18.2067H67.3772L67.9809 20H69.3871L66.8232 12.7273H65.1968L62.6364 20H64.0427ZM64.9979 17.1484L65.9816 14.2188H66.0384L67.0221 17.1484H64.9979ZM71.2728 21.7543H72.537V20H77.1712V21.7472H78.4354V18.924H77.6257V12.7273H72.9773L72.7855 15.8026C72.6684 17.7628 72.2529 18.5334 71.7593 18.924H71.2728V21.7543ZM73.2934 18.924C73.6804 18.2884 73.961 17.2905 74.0498 15.8026L74.1634 13.8317H76.3615V18.924H73.2934Z" fill="#3F4E65"/>
<path d="M17 12L13 16L17 20" stroke="#3F4E65"/>
</svg>
